<?xml version="1.0" encoding="utf-8"?>
<svg version="1.1" id="Layer_1" xmlns="http://www.w3.org/2000/svg" xmlns:xlink="http://www.w3.org/1999/xlink" x="0px" y="0px"
	 width="252.279px" height="443.5px" viewBox="0 0 252.279 443.5" enable-background="new 0 0 252.279 443.5" xml:space="preserve">
<g>
	<g id="Layer_2">
		<g>
			<polygon fill="#FFFFFF" stroke="#E6E7E8" stroke-miterlimit="10" points="252.279,109 190.002,145 127.722,109 127.722,37
				190.002,1 252.279,37 			"/>
			<polygon fill="#2363AF" points="246.943,105.917 190,138.829 133.06,105.917 133.06,40.087 190,7.171 246.943,40.087 			"/>
			<g>
				<polygon fill="#2363AF" points="190.002,132.861 138.221,102.933 138.221,43.069 190.002,13.14 				"/>
				<polygon fill="#3D9CD6" points="190,132.861 241.782,102.933 241.782,43.069 190,13.14 				"/>
			</g>
		</g>
		<g>
			<g>
				<path fill="#FFFFFF" d="M190.273,69.817l-28.66,10.01l0.949,9.911l27.711-9.938l29.476-10.568l1.222-10.138L190.273,69.817z"/>

					<linearGradient id="SVGID_1_" gradientUnits="userSpaceOnUse" x1="-813.9878" y1="-633.0186" x2="-813.9878" y2="-652.9409" gradientTransform="matrix(1 0 0 1 989.9297 722.7578)">
					<stop  offset="0.387" style="stop-color:#D2D3D4;stop-opacity:0"/>
					<stop  offset="1" style="stop-color:#D2D3D4"/>
				</linearGradient>
				<path fill="url(#SVGID_1_)" d="M161.613,79.828l0.949,9.911l27.709-9.938v-9.984L161.613,79.828z"/>

					<linearGradient id="SVGID_2_" gradientUnits="userSpaceOnUse" x1="-784.3071" y1="-642.9561" x2="-784.3071" y2="-663.6631" gradientTransform="matrix(1 0 0 1 989.9297 722.7578)">
					<stop  offset="0.387" style="stop-color:#D2D3D4;stop-opacity:0"/>
					<stop  offset="1" style="stop-color:#D2D3D4"/>
				</linearGradient>
				<path fill="url(#SVGID_2_)" d="M220.971,59.095l-30.697,10.723v9.984l29.476-10.569L220.971,59.095z"/>

					<linearGradient id="SVGID_3_" gradientUnits="userSpaceOnUse" x1="-828.2725" y1="-624.1348" x2="-771.2197" y2="-624.1348" gradientTransform="matrix(1 0 0 1 989.9297 722.7578)">
					<stop  offset="0" style="stop-color:#E8E7E5"/>
					<stop  offset="1" style="stop-color:#FFFFFF"/>
				</linearGradient>
				<path fill="url(#SVGID_3_)" d="M161.657,79.828l0.951,9.911l42.516,0.114l-0.95,13.214l-13.99,3.304l-13.448-2.85l-0.815-8.203
					h-12.496l1.629,15.837l25.267,6.264l25.128-6.151l3.261-31.441h-57.051v0.001H161.657z"/>
				<g opacity="0.05">
					<path fill="#010101" d="M190.273,79.828h-28.66l0.949,9.911l27.711,0.073V79.828L190.273,79.828z M190.273,106.338
						l-0.136,0.032l-13.446-2.848l-0.816-8.203h-12.496l1.63,15.835l25.265,6.265L190.273,106.338L190.273,106.338z"/>
				</g>

					<linearGradient id="SVGID_4_" gradientUnits="userSpaceOnUse" x1="-830.8965" y1="-658.5938" x2="-768.9595" y2="-658.5938" gradientTransform="matrix(1 0 0 1 989.9297 722.7578)">
					<stop  offset="0" style="stop-color:#E8E7E5"/>
					<stop  offset="1" style="stop-color:#FFFFFF"/>
				</linearGradient>
				<path fill="url(#SVGID_4_)" d="M159.033,59.095h61.937l-1.221,10.139h-59.223L159.033,59.095z"/>
				<path opacity="0.05" fill="#010101" enable-background="new    " d="M190.273,59.095h-31.24l1.494,10.139h29.748V59.095H190.273
					z"/>
			</g>
			<path fill="#010101" d="M165.9,48.201v-6.325h9.219v-6.923h-16.133v19.565h16.133v-6.317H165.9z M191.704,41.876h6.444v-6.923
				h-16.135v6.923c2.161,2.161,3.285,3.195,6.408,6.321c-1.826,0-6.408,0.007-6.408,0.007v6.315h16.135v-6.317L191.704,41.876z
				 M214.572,41.876h6.445v-6.923h-16.136v6.923c2.159,2.161,3.284,3.195,6.407,6.321c-1.825,0-6.407,0.007-6.407,0.007v6.315
				h16.136v-6.317L214.572,41.876z"/>
		</g>
	</g>
	<g>
		<polygon fill="#FFFFFF" stroke="#E6E7E8" stroke-miterlimit="10" points="126.258,253.596 63.979,289.596 1.699,253.596
			1.699,181.595 63.979,145.595 126.258,181.595 		"/>
		<g>
			<polygon fill="#010101" stroke="#414042" stroke-miterlimit="10" points="120.919,250.51 63.979,283.424 7.038,250.51
				7.038,184.681 63.979,151.767 120.919,184.681 			"/>
			<path fill="#010101" d="M10.374,217.423c0,8.105,7.906,15.672,20.37,19.938c-2.487,12.547-0.445,22.659,6.377,26.598
				c7.016,4.049,17.464,1.246,27.382-7.434c9.667,8.33,19.438,11.606,26.255,7.654c7.008-4.062,9.14-14.857,6.582-27.793
				c12.98-4.299,20.242-10.752,20.242-18.963c0-7.92-7.919-14.77-20.217-19.008c2.754-13.471,0.423-23.338-6.685-27.439
				c-6.853-3.957-16.735-0.51-26.545,8.037c-10.206-9.07-19.992-11.842-27.092-7.727c-6.843,3.967-8.796,14.262-6.301,27.041
				C18.701,202.529,10.374,209.537,10.374,217.423z"/>
			<path fill="#2BACE2" d="M94.657,202.679c-0.99-0.342-2.012-0.664-3.063-0.969c0.172-0.707,0.329-1.406,0.472-2.092
				c2.32-11.277,0.802-20.359-4.378-23.35c-4.966-2.869-13.091,0.121-21.295,7.268c-0.788,0.689-1.579,1.416-2.369,2.178
				c-0.528-0.504-1.053-0.992-1.578-1.457c-8.6-7.645-17.216-10.865-22.394-7.865c-4.96,2.875-6.431,11.414-4.342,22.102
				c0.203,1.031,0.438,2.084,0.705,3.158c-1.22,0.344-2.398,0.715-3.525,1.109c-10.079,3.521-16.518,9.031-16.518,14.752
				c0,5.908,6.912,11.834,17.411,15.428c0.826,0.283,1.688,0.553,2.573,0.807c-0.287,1.158-0.538,2.295-0.749,3.402
				c-1.99,10.502-0.436,18.84,4.515,21.698c5.111,2.949,13.69-0.084,22.044-7.395c0.66-0.578,1.324-1.191,1.985-1.834
				c0.861,0.83,1.72,1.615,2.575,2.352c8.092,6.973,16.085,9.787,21.029,6.922c5.104-2.961,6.766-11.917,4.612-22.814
				c-0.166-0.834-0.358-1.684-0.572-2.549c0.603-0.178,1.194-0.363,1.771-0.553c10.916-3.621,18.018-9.475,18.018-15.463
				C111.584,211.775,104.939,206.222,94.657,202.679L94.657,202.679L94.657,202.679z"/>
			<path fill="#010101" d="M92.288,229.111c-0.521,0.172-1.054,0.34-1.598,0.5c-1.206-3.818-2.831-7.879-4.823-12.074
				c1.899-4.098,3.465-8.105,4.635-11.902c0.976,0.283,1.921,0.58,2.83,0.895c8.811,3.035,14.187,7.525,14.187,10.986
				C107.518,221.201,101.712,225.984,92.288,229.111L92.288,229.111L92.288,229.111z M88.377,236.871
				c0.954,4.816,1.089,9.174,0.46,12.581c-0.569,3.062-1.71,5.1-3.119,5.918c-3.001,1.737-9.418-0.522-16.338-6.484
				c-0.793-0.684-1.593-1.412-2.394-2.186c2.683-2.938,5.364-6.354,7.98-10.147c4.604-0.408,8.952-1.078,12.896-1.99
				C88.057,235.347,88.231,236.119,88.377,236.871L88.377,236.871L88.377,236.871z M48.832,255.068
				c-2.932,1.037-5.266,1.065-6.675,0.25c-3.004-1.732-4.252-8.428-2.549-17.409c0.193-1.025,0.427-2.082,0.693-3.164
				c3.902,0.863,8.218,1.484,12.832,1.857c2.634,3.713,5.391,7.125,8.173,10.112c-0.607,0.588-1.212,1.146-1.814,1.674
				C55.798,251.621,52.095,253.916,48.832,255.068L48.832,255.068L48.832,255.068z M35.099,229.089
				c-4.644-1.59-8.478-3.656-11.105-5.906c-2.361-2.025-3.553-4.037-3.553-5.668c0-3.471,5.168-7.898,13.789-10.906
				c1.046-0.367,2.141-0.711,3.278-1.033c1.19,3.881,2.755,7.936,4.642,12.039c-1.913,4.164-3.497,8.285-4.699,12.211
				C36.638,229.593,35.853,229.347,35.099,229.089L35.099,229.089L35.099,229.089z M39.704,197.712
				c-1.791-9.154-0.602-16.062,2.387-17.797c3.188-1.846,10.228,0.789,17.652,7.389c0.476,0.422,0.951,0.863,1.429,1.32
				c-2.765,2.975-5.499,6.359-8.111,10.049c-4.477,0.416-8.763,1.084-12.706,1.977C40.108,199.652,39.888,198.671,39.704,197.712
				L39.704,197.712L39.704,197.712z M80.773,207.867c-0.943-1.629-1.911-3.221-2.896-4.768c3.039,0.383,5.95,0.895,8.683,1.52
				c-0.819,2.633-1.844,5.385-3.048,8.207C82.648,211.185,81.733,209.529,80.773,207.867L80.773,207.867L80.773,207.867z
				 M64.025,191.535c1.877,2.033,3.755,4.307,5.604,6.771c-1.863-0.088-3.749-0.133-5.649-0.133c-1.884,0-3.755,0.045-5.606,0.131
				C60.223,195.861,62.119,193.593,64.025,191.535L64.025,191.535L64.025,191.535z M47.168,207.894
				c-0.94,1.635-1.837,3.281-2.688,4.93c-1.185-2.812-2.198-5.578-3.027-8.248c2.719-0.607,5.615-1.107,8.635-1.484
				C49.089,204.654,48.112,206.257,47.168,207.894L47.168,207.894L47.168,207.894z M50.172,232.23
				c-3.117-0.348-6.057-0.82-8.773-1.41c0.841-2.721,1.877-5.543,3.087-8.418c0.852,1.648,1.752,3.295,2.697,4.934l0,0
				C48.15,229.003,49.147,230.634,50.172,232.23L50.172,232.23L50.172,232.23z M64.136,243.785c-1.928-2.084-3.85-4.387-5.728-6.864
				c1.823,0.072,3.681,0.109,5.571,0.109c1.941,0,3.859-0.045,5.748-0.129C67.874,239.425,66,241.73,64.136,243.785L64.136,243.785
				L64.136,243.785z M83.549,222.255c1.272,2.904,2.347,5.715,3.198,8.385c-2.762,0.631-5.741,1.141-8.882,1.516
				c0.988-1.568,1.964-3.184,2.923-4.85C81.758,225.623,82.679,223.937,83.549,222.255L83.549,222.255L83.549,222.255z
				 M77.265,225.271c-1.488,2.586-3.017,5.053-4.566,7.379c-2.826,0.201-5.746,0.307-8.72,0.307c-2.964,0-5.844-0.092-8.622-0.273
				c-1.615-2.357-3.173-4.832-4.653-7.391l0,0c-1.475-2.549-2.833-5.121-4.063-7.68c1.23-2.562,2.583-5.137,4.049-7.684l0,0
				c1.471-2.555,3.019-5.014,4.617-7.357c2.831-0.213,5.736-0.326,8.67-0.326l0,0c2.947,0,5.854,0.113,8.687,0.328
				c1.574,2.326,3.11,4.781,4.587,7.334c1.492,2.58,2.864,5.139,4.104,7.646C80.12,220.107,78.751,222.691,77.265,225.271
				L77.265,225.271L77.265,225.271z M85.655,179.796c3.19,1.842,4.429,9.266,2.428,19c-0.13,0.623-0.273,1.256-0.431,1.895
				c-3.949-0.91-8.238-1.59-12.729-2.012c-2.618-3.729-5.327-7.121-8.05-10.059c0.729-0.703,1.461-1.375,2.19-2.01
				C76.093,180.488,82.663,178.07,85.655,179.796L85.655,179.796L85.655,179.796z"/>
			<path fill="#2BACE2" d="M64.032,208.623c4.695,0,8.503,3.811,8.503,8.51c0,4.703-3.808,8.514-8.503,8.514
				c-4.695,0-8.502-3.811-8.502-8.514C55.53,212.433,59.336,208.623,64.032,208.623"/>
		</g>
	</g>
	<g>
		<g>
			<polygon fill="#FFFFFF" stroke="#E6E7E8" stroke-miterlimit="10" points="126.26,399.002 63.98,435.002 1.699,399.002
				1.699,327.002 63.98,291.002 126.26,327.002 			"/>
			<polygon fill="#E45226" points="120.922,395.92 63.978,428.832 7.037,395.92 7.037,330.09 63.978,297.174 120.922,330.09 			"/>
			<g>
				<polygon fill="#E45226" points="63.978,422.863 12.197,392.936 12.197,333.072 63.978,303.143 				"/>
				<polygon fill="#F1692C" points="63.978,422.863 115.76,392.936 115.76,333.072 63.978,303.143 				"/>
			</g>
		</g>
		<g>
			<g>
				<path fill="#020202" d="M31.007,319.756h5.145v5.088h4.703v-5.088H46v15.406h-5.143v-5.158h-4.705v5.158h-5.145V319.756
					L31.007,319.756z"/>
				<path fill="#020202" d="M52.763,324.865h-4.529v-5.109h14.203v5.109h-4.531v10.297h-5.143V324.865L52.763,324.865z"/>
				<path fill="#020202" d="M64.689,319.756h5.363l3.301,5.414l3.295-5.414h5.363v15.406H76.89v-7.635l-3.539,5.477h-0.088
					l-3.541-5.477v7.635h-5.033V319.756L64.689,319.756z"/>
				<path fill="#020202" d="M84.574,319.756h5.143v10.314h7.234v5.092H84.574V319.756L84.574,319.756z"/>
			</g>
			<g>
				<polygon fill="#EBEBEB" points="64.017,365.047 46.597,365.047 45.394,351.551 64.017,351.551 64.017,338.369 63.972,338.369
					31.007,338.369 31.322,341.906 34.558,378.227 64.017,378.227 				"/>
				<polygon fill="#EBEBEB" points="64.017,399.275 63.96,399.293 49.298,395.33 48.361,384.816 41.238,384.816 35.146,384.816
					36.99,405.512 63.957,413.006 64.017,412.99 				"/>
				<polygon fill="#FFFFFF" points="63.972,365.047 63.972,378.227 80.183,378.227 78.656,395.32 63.972,399.287 63.972,413
					90.96,405.512 91.158,403.285 94.251,368.586 94.574,365.047 91.027,365.047 				"/>
				<polygon fill="#FFFFFF" points="63.972,338.369 63.972,346.555 63.972,351.518 63.972,351.551 95.728,351.551 95.728,351.551
					95.771,351.551 96.035,348.588 96.634,341.906 96.951,338.369 				"/>
			</g>
		</g>
	</g>
	<g>
		<polygon fill="#FFFFFF" stroke="#E6E7E8" stroke-miterlimit="10" points="252.279,399.002 190.001,435.002 127.72,399.002
			127.72,327.002 190.001,291.002 252.279,327.002 		"/>
		<g>
			<g>
				<g>
					<polygon fill="#573F7E" points="246.663,395.754 189.999,428.51 133.335,395.754 133.335,330.248 189.999,297.494
						246.663,330.248 					"/>
				</g>
			</g>
			<path fill="#FFFFFF" d="M179.962,356.887v-15.016h13.217c1.26,0,2.473,0.105,3.643,0.314c1.169,0.209,2.202,0.584,3.102,1.123
				c0.898,0.541,1.619,1.289,2.158,2.248s0.809,2.188,0.809,3.688c0,2.697-0.809,4.646-2.428,5.844
				c-1.617,1.199-3.687,1.799-6.204,1.799H179.962L179.962,356.887z M165.845,330.9v64.201h31.111c2.877,0,5.68-0.359,8.406-1.08
				c2.729-0.72,5.155-1.828,7.283-3.324c2.129-1.502,3.822-3.434,5.081-5.803c1.259-2.367,1.888-5.168,1.888-8.406
				c0-4.019-0.973-7.447-2.922-10.295c-1.948-2.849-4.9-4.84-8.856-5.979c2.877-1.379,5.05-3.147,6.519-5.308
				c1.468-2.155,2.203-4.854,2.203-8.092c0-2.996-0.495-5.516-1.484-7.553c-0.988-2.039-2.382-3.672-4.18-4.9
				c-1.799-1.229-3.957-2.112-6.475-2.651c-2.519-0.539-5.306-0.812-8.363-0.812h-30.211V330.9z M179.962,384.131v-17.623h15.375
				c3.058,0,5.516,0.703,7.373,2.113c1.857,1.408,2.787,3.762,2.787,7.059c0,1.678-0.284,3.057-0.854,4.137
				c-0.57,1.078-1.334,1.933-2.293,2.562c-0.959,0.629-2.068,1.078-3.327,1.348c-1.259,0.271-2.577,0.404-3.956,0.404H179.962
				L179.962,384.131z"/>
		</g>
	</g>
	<g>
		<polygon fill="#FFFFFF" stroke="#E6E7E8" stroke-miterlimit="10" points="126.259,109 63.98,145 1.699,109 1.699,37 63.98,1
			126.259,37 		"/>
		<g>
			<g>
				<polygon fill="#F5DF18" points="120.643,105.754 63.978,138.509 7.315,105.754 7.315,40.245 63.978,7.491 120.643,40.245
					"/>
				<path fill="#020202" d="M48.304,104.213l7.509-4.551c1.449,2.573,2.77,4.749,5.93,4.749c3.031,0,4.943-1.188,4.943-5.805V67.21
					h9.223v31.527c0,9.564-5.599,13.917-13.77,13.917C54.76,112.655,50.478,108.83,48.304,104.213"/>
				<path fill="#020202" d="M80.917,103.224l7.51-4.353c1.977,3.231,4.548,5.606,9.094,5.606c3.822,0,6.259-1.915,6.259-4.551
					c0-3.167-2.504-4.288-6.721-6.136l-2.307-0.99c-6.652-2.834-11.068-6.396-11.068-13.917c0-6.924,5.272-12.202,13.507-12.202
					c5.864,0,10.079,2.046,13.109,7.388l-7.18,4.615c-1.583-2.833-3.296-3.955-5.932-3.955c-2.701,0-4.412,1.715-4.412,3.955
					c0,2.772,1.711,3.894,5.665,5.609l2.303,0.989c7.841,3.365,12.257,6.794,12.257,14.512c0,8.312-6.523,12.86-15.282,12.86
					C89.154,112.655,83.62,108.565,80.917,103.224"/>
			</g>
		</g>
	</g>
	<g>
		<polygon fill="#FFFFFF" stroke="#E6E7E8" stroke-miterlimit="10" points="252.279,253.596 190.001,289.596 127.72,253.596
			127.72,181.595 190.001,145.595 252.279,181.595 		"/>
		<g>
			<g>
				<polygon fill="#F26925" points="246.665,250.353 190.001,283.104 133.335,250.353 133.335,184.843 190.001,152.086
					246.665,184.843 				"/>
				<path fill="#FFFFFF" d="M180.058,231.76h17.334v-4.721H185.41v-7.318h11.049v-4.724H185.41v-6.847h11.982v-4.721h-17.334V231.76
					L180.058,231.76z M220.546,224.061c0-5.657-0.383-6.891-7.988-8.719c-4.887-1.191-4.971-1.276-4.971-4.51
					c0-2.466,0.637-3.231,4.25-3.231c2.463,0,5.227,0.34,7.561,0.85l0.596-4.508c-2.805-0.639-5.779-0.935-8.242-0.935
					c-7.182,0-9.518,2.55-9.518,7.698c0,5.999,0.936,7.315,7.775,8.847c5.098,1.106,5.184,1.362,5.184,4.509
					c0,2.722-0.637,3.53-4.504,3.53c-2.803,0-5.354-0.509-7.988-1.319l-0.934,4.213c1.869,0.891,5.609,1.701,8.838,1.701
					C218.974,232.186,220.546,229.419,220.546,224.061L220.546,224.061L220.546,224.061z M230.399,213.513
					c0-4.339,2.084-5.19,7.098-5.19c0.893,0,2.76,0.128,3.992,0.385l0.34-4.34c-1.275-0.299-3.314-0.51-4.885-0.51
					c-7.732,0-11.729,2.381-11.729,9.868v10.336c0,4.891,1.447,8.125,8.754,8.125c6.672,0,8.711-3.318,8.711-7.742v-2.042
					c0-4.892-2.082-7.018-7.223-7.018c-1.828,0-3.57,0.254-5.059,0.765L230.399,213.513L230.399,213.513z M234.649,219.848
					c1.871,0,2.848,0.638,2.848,2.683v2.084c0,2.168-0.85,3.104-3.527,3.104c-2.676,0-3.57-0.764-3.57-3.104v-3.873
					C231.591,220.231,233.12,219.848,234.649,219.848L234.649,219.848L234.649,219.848z"/>
			</g>
		</g>
	</g>
</g>
</svg>
